<?xml version="1.0" standalone="no"?>
<!DOCTYPE svg PUBLIC "-//W3C//DTD SVG 20010904//EN"
 "http://www.w3.org/TR/2001/REC-SVG-20010904/DTD/svg10.dtd">
<svg version="1.0" xmlns="http://www.w3.org/2000/svg"
 width="225.000000pt" height="328.000000pt" viewBox="0 0 225.000000 328.000000"
 preserveAspectRatio="xMidYMid meet">

<g transform="translate(0.000000,328.000000) scale(0.100000,-0.100000)"
fill="#000000" stroke="none">
<path d="M900 3260 c-227 -48 -408 -147 -571 -309 -219 -219 -329 -486 -329
-796 0 -289 102 -555 293 -762 88 -94 271 -479 488 -1023 31 -79 34 -95 39
-225 l5 -140 310 0 310 0 5 145 c5 131 8 150 31 195 15 28 34 75 44 105 72
225 383 884 460 975 176 210 265 454 265 730 0 310 -110 577 -329 796 -166
166 -363 270 -591 313 -113 22 -320 20 -430 -4z m925 -2059 c-103 -207 -285
-619 -315 -716 -7 -22 -24 -66 -37 -97 l-26 -58 -103 0 c-92 0 -104 2 -104 18
0 30 49 331 80 493 17 86 30 167 30 181 0 21 8 26 78 47 153 45 304 124 422
220 14 11 26 21 28 21 1 0 -23 -49 -53 -109z m-1303 1 c86 -55 184 -99 301
-133 72 -21 77 -25 77 -50 0 -15 7 -61 15 -101 20 -91 81 -453 90 -530 l7 -58
-95 0 -95 0 -27 73 c-75 201 -242 581 -346 790 -41 81 -46 97 -28 81 13 -12
59 -44 101 -72z m805 -197 c-3 -16 -22 -117 -41 -223 -20 -106 -44 -251 -53
-323 l-18 -129 -90 0 -90 0 -18 129 c-9 72 -33 217 -53 323 -19 106 -38 207
-41 223 l-5 30 207 0 207 0 -5 -30z"/>
</g>
</svg>
