<?xml version="1.0" standalone="no"?>
<!DOCTYPE svg PUBLIC "-//W3C//DTD SVG 20010904//EN"
 "http://www.w3.org/TR/2001/REC-SVG-20010904/DTD/svg10.dtd">
<svg version="1.0" xmlns="http://www.w3.org/2000/svg"
 width="768.000000pt" height="430.000000pt" viewBox="0 0 768.000000 430.000000"
 preserveAspectRatio="xMidYMid meet">

<g transform="translate(0.000000,430.000000) scale(0.100000,-0.100000)"
fill="#000000" stroke="none">
<path d="M2979 4271 c-16 -16 -29 -36 -29 -44 0 -8 -7 -20 -16 -28 -9 -7 -29
-39 -45 -70 -16 -32 -34 -61 -40 -64 -15 -10 -49 -92 -49 -118 0 -23 -42 -114
-73 -157 -9 -13 -17 -32 -17 -42 0 -9 -16 -29 -35 -43 -19 -15 -37 -37 -41
-48 -3 -12 -16 -33 -29 -47 -12 -14 -31 -40 -41 -57 -10 -18 -21 -33 -25 -33
-13 0 -99 -123 -99 -141 0 -10 -4 -20 -9 -24 -6 -3 -22 -43 -36 -88 -24 -78
-57 -134 -130 -224 -14 -17 -30 -45 -36 -61 -6 -17 -21 -38 -34 -46 -13 -9
-27 -25 -30 -37 -4 -12 -22 -47 -40 -78 -18 -31 -42 -81 -54 -111 -12 -30 -33
-77 -46 -105 -13 -27 -33 -75 -45 -105 -26 -65 -84 -165 -116 -200 -12 -14
-32 -45 -42 -70 -11 -25 -27 -54 -35 -64 -14 -19 -15 -19 -26 1 -6 12 -39 40
-73 63 -66 44 -114 94 -142 147 -34 67 -88 71 -152 11 -34 -33 -50 -59 -68
-113 -22 -64 -63 -138 -115 -206 -11 -14 -28 -45 -37 -68 -14 -36 -20 -42 -38
-36 -68 20 -85 18 -114 -11 -26 -27 -29 -38 -37 -129 -5 -55 -9 -125 -10 -155
-1 -30 -9 -68 -17 -85 -8 -16 -23 -65 -33 -108 -9 -43 -27 -99 -41 -125 -13
-26 -31 -80 -39 -121 -8 -40 -24 -84 -35 -98 -11 -14 -20 -37 -21 -52 0 -14
-4 -34 -7 -44 -7 -16 -10 -15 -42 8 -64 47 -123 24 -154 -62 -10 -26 -37 -88
-60 -138 -24 -49 -54 -115 -67 -145 -13 -30 -33 -68 -45 -85 -12 -16 -33 -52
-47 -80 -14 -27 -52 -79 -85 -115 -32 -36 -66 -78 -75 -95 -8 -16 -35 -51 -59
-76 -24 -25 -54 -65 -68 -89 -14 -23 -37 -58 -52 -78 -16 -19 -28 -45 -28 -58
l0 -24 1555 0 c855 0 1555 3 1555 8 0 4 -13 24 -30 44 -16 20 -41 59 -55 87
-14 27 -30 53 -36 56 -9 6 -41 64 -115 209 -18 35 -63 94 -104 136 -40 41 -81
94 -91 117 -11 26 -29 48 -48 58 -17 8 -31 22 -31 30 0 8 -13 29 -29 47 -15
18 -36 49 -46 68 -26 52 -81 121 -165 210 -84 88 -121 133 -169 203 -17 26
-36 47 -41 47 -5 0 -16 24 -25 53 -17 57 -49 117 -64 117 -24 0 -87 118 -105
195 -10 44 -24 96 -32 115 -7 19 -16 53 -19 75 -9 56 -51 142 -96 196 -42 49
-47 64 -25 72 8 3 26 32 41 64 15 32 37 69 50 83 32 36 89 136 115 200 12 30
32 78 45 105 13 28 34 75 46 105 12 30 37 81 55 113 19 32 34 62 34 68 0 14
12 11 76 -20 32 -16 80 -39 106 -50 56 -25 140 -28 158 -6 7 8 23 15 36 15 12
0 47 13 76 29 29 16 74 35 100 41 25 7 57 23 69 36 26 28 79 33 99 9 7 -8 23
-15 35 -15 13 0 43 -11 66 -25 34 -19 58 -25 105 -25 66 0 80 8 113 71 11 20
29 36 47 41 16 5 126 10 245 11 l216 2 29 -34 c41 -49 61 -84 91 -159 15 -37
36 -81 48 -98 27 -40 125 -133 147 -140 10 -3 18 -10 18 -15 0 -12 119 -129
132 -129 14 0 86 -78 105 -114 9 -17 55 -74 104 -127 48 -53 95 -111 103 -128
9 -17 21 -31 27 -31 5 0 34 -24 62 -53 54 -54 112 -157 163 -294 14 -38 34
-82 45 -99 11 -19 19 -50 20 -80 1 -80 31 -218 53 -244 8 -8 24 -38 36 -67 12
-28 28 -54 35 -57 8 -3 29 -35 47 -72 18 -37 42 -77 53 -89 11 -12 29 -37 40
-55 11 -19 27 -44 35 -55 8 -12 25 -37 37 -56 12 -19 34 -46 48 -62 14 -15 25
-33 25 -41 0 -7 15 -28 34 -47 19 -19 40 -46 45 -59 6 -14 29 -50 51 -80 22
-30 40 -61 40 -68 0 -7 15 -27 34 -45 21 -19 45 -59 61 -99 15 -36 33 -69 40
-72 8 -3 26 -29 41 -58 14 -29 42 -79 61 -111 l34 -57 1011 0 1011 0 -39 44
c-22 24 -55 65 -74 90 -19 25 -53 59 -75 76 -22 17 -56 51 -75 76 -19 25 -49
62 -66 82 -32 39 -54 75 -78 132 -9 19 -20 42 -25 50 -18 28 -111 232 -111
244 0 6 -20 40 -45 76 -24 36 -53 83 -64 105 -40 81 -192 213 -284 247 -60 22
-55 17 -273 242 -34 35 -66 65 -70 67 -5 2 -21 21 -36 41 -16 20 -37 40 -48
43 -11 4 -62 31 -112 61 -51 30 -96 54 -102 54 -16 0 -144 69 -168 91 -88 79
-226 188 -261 207 -23 12 -45 29 -50 37 -4 8 -38 29 -75 47 -37 18 -71 38 -75
45 -4 7 -29 24 -55 37 -52 27 -115 85 -150 137 -75 114 -102 158 -102 170 -1
40 -48 110 -120 180 -104 99 -160 168 -160 195 0 12 -8 32 -19 45 -10 13 -22
34 -26 47 -8 27 -60 62 -93 62 -33 0 -144 -110 -180 -179 -16 -31 -37 -87 -45
-124 -9 -39 -28 -86 -44 -109 -15 -22 -35 -52 -43 -65 -16 -27 -97 -111 -150
-155 l-32 -28 -28 30 c-15 17 -33 30 -38 30 -6 0 -46 35 -90 78 -43 42 -103
99 -132 126 -66 60 -89 92 -123 179 -30 76 -56 117 -122 197 -24 30 -56 71
-69 90 -13 19 -32 42 -42 51 -11 9 -27 29 -37 45 -9 16 -28 44 -41 61 -13 18
-27 50 -31 70 -3 21 -17 54 -30 73 -19 27 -26 58 -34 135 -6 55 -15 116 -21
135 -5 19 -10 46 -10 60 0 14 -8 37 -17 50 -19 26 -49 103 -62 155 -8 32 -80
153 -116 195 -12 14 -33 43 -47 65 -70 110 -130 134 -189 76z m123 -13 c17
-18 42 -51 56 -73 14 -22 35 -51 47 -65 36 -42 108 -163 116 -195 13 -52 43
-129 62 -155 9 -13 17 -36 17 -50 0 -14 5 -41 10 -60 6 -19 15 -80 21 -135 8
-77 15 -108 34 -135 13 -19 27 -51 30 -71 7 -35 16 -53 70 -129 24 -34 33 -45
112 -138 20 -23 34 -44 32 -47 -3 -2 -55 -1 -117 3 -61 4 -120 4 -129 0 -10
-3 -58 -7 -108 -8 -115 -2 -134 -8 -156 -48 -32 -61 -48 -72 -103 -72 -36 0
-64 8 -95 25 -23 14 -53 25 -66 25 -12 0 -28 7 -35 15 -21 25 -92 19 -119 -9
-12 -13 -44 -29 -69 -36 -26 -6 -71 -25 -100 -41 -29 -16 -64 -29 -76 -29 -13
0 -29 -7 -36 -15 -28 -34 -92 -19 -264 65 l-58 28 25 17 c14 9 30 30 36 47 6
16 22 44 36 61 73 90 106 146 130 224 14 45 30 85 36 88 5 4 9 14 9 24 0 18
86 141 99 141 4 0 15 15 25 33 10 17 29 43 41 57 13 14 26 35 29 47 4 11 22
33 41 48 19 14 35 34 35 43 0 10 8 29 17 42 31 43 73 134 73 157 0 26 34 108
49 118 6 3 24 32 40 64 16 31 36 63 45 70 9 8 16 20 16 28 0 8 13 28 29 44 39
39 75 38 113 -3z m1695 -1257 c17 -11 34 -30 38 -43 4 -13 16 -34 26 -47 11
-13 19 -34 19 -46 0 -12 16 -40 35 -62 33 -39 34 -41 16 -57 -13 -12 -38 -16
-98 -16 -75 0 -82 2 -124 34 -28 21 -59 35 -87 39 -24 3 -46 8 -49 11 -18 18
145 206 179 206 7 0 27 -9 45 -19z"/>
</g>
</svg>
