<?xml version="1.0" encoding="UTF-8" standalone="no"?>
<svg
   xmlns:dc="http://purl.org/dc/elements/1.1/"
   xmlns:cc="http://creativecommons.org/ns#"
   xmlns:rdf="http://www.w3.org/1999/02/22-rdf-syntax-ns#"
   xmlns:svg="http://www.w3.org/2000/svg"
   xmlns="http://www.w3.org/2000/svg"
   xmlns:sodipodi="http://sodipodi.sourceforge.net/DTD/sodipodi-0.dtd"
   xmlns:inkscape="http://www.inkscape.org/namespaces/inkscape"
   version="1.0"
   width="215.000000pt"
   height="67.000000pt"
   viewBox="0 0 215.000000 67.000000"
   preserveAspectRatio="xMidYMid meet"
   id="svg831"
   sodipodi:docname="flugzeug4.svg"
   inkscape:version="0.92.2 (5c3e80d, 2017-08-06)">
  <metadata
     id="metadata837">
    <rdf:RDF>
      <cc:Work
         rdf:about="">
        <dc:format>image/svg+xml</dc:format>
        <dc:type
           rdf:resource="http://purl.org/dc/dcmitype/StillImage" />
        <dc:title></dc:title>
      </cc:Work>
    </rdf:RDF>
  </metadata>
  <defs
     id="defs835" />
  <sodipodi:namedview
     pagecolor="#ffffff"
     bordercolor="#666666"
     borderopacity="1"
     objecttolerance="10"
     gridtolerance="10"
     guidetolerance="10"
     inkscape:pageopacity="0"
     inkscape:pageshadow="2"
     inkscape:window-width="1920"
     inkscape:window-height="1017"
     id="namedview833"
     showgrid="false"
     inkscape:zoom="4.9709302"
     inkscape:cx="143.33333"
     inkscape:cy="44.666667"
     inkscape:window-x="-8"
     inkscape:window-y="-8"
     inkscape:window-maximized="1"
     inkscape:current-layer="svg831" />
  <g
     transform="translate(0.000000,67.000000) scale(0.100000,-0.100000)"
     fill="#000000"
     stroke="none"
     id="g829">
    <path
       d="M26 647 c-14 -14 -26 -31 -26 -36 0 -43 73 -350 88 -371 27 -36 110 -61 222 -67 84 -5 98 -8 122 -31 l27 -25 -31 -16 c-48 -24 -55 -43 -28 -74 30 -34 60 -34 90 0 19 22 21 29 10 46 -10 17 -7 24 27 58 l38 37 388 7 388 8 29 -28 c25 -24 27 -30 17 -53 -9 -20 -9 -26 1 -30 6 -2 12 -9 12 -16 0 -23 45 -56 76 -56 31 0 74 34 74 58 0 7 5 12 10 12 21 0 9 33 -25 67 -19 19 -35 37 -35 39 0 2 46 4 103 4 195 0 351 29 406 76 l31 26 1 -104 c0 -110 15 -173 39 -173 12 0 15 24 18 142 2 138 3 141 27 157 32 21 32 41 0 62 -24 16 -25 19 -27 157 -3 118 -6 142 -18 142 -24 0 -39 -63 -39 -172 l-1 -102 -35 20 c-45 27 -168 48 -280 49 l-91 0 -49 50 c-90 91 -160 104 -429 75 -212 -22 -241 -29 -519 -121 -230 -77 -260 -84 -278 -72 -12 7 -46 63 -78 123 -62 122 -84 140 -179 152 -45 5 -53 3 -76 -20z m2064 -119 c0 -141 -6 -181 -24 -175 -15 5 -20 215 -6 267 20 74 30 43 30 -92z m-572 28 c15 -8 47 -35 71 -60 37 -38 42 -47 31 -60 -14 -18 -101 -46 -141 -46 -24 0 -28 5 -43 65 -21 83 -21 82 12 99 34 19 37 19 70 2z m-156 -18 c12 -10 48 -124 48 -153 0 -3 -44 -5 -99 -5 -111 0 -113 1 -132 73 -14 58 -9 65 58 83 62 16 105 17 125 2z m722 -240 c10 -38 7 -288 -4 -288 -18 0 -30 75 -30 186 0 61 3 114 7 117 12 12 21 7 27 -15z m-634 -127 c0 -16 -28 -20 -40 -5 -10 12 -8 14 14 14 14 0 26 -4 26 -9z m-953 -18 c-16 -16 -18 -16 -34 0 -16 16 -15 17 17 17 32 0 33 -1 17 -17z"
       id="path827" />
  </g>
  <path
     style="opacity:1;fill:#00ff00;fill-opacity:1;stroke:none;stroke-width:0.2011696"
     d="m 194.93333,88.946624 c -2.06198,-0.55913 -3.67974,-1.442611 -5.69282,-3.108949 -1.25823,-1.041499 -2.21159,-2.533083 -2.4505,-3.833932 -0.20597,-1.121466 -0.63494,-1.669273 -2.09461,-2.674888 -0.7129,-0.491137 -0.67338,-0.954095 0.29955,-3.509182 1.33426,-3.503996 1.20366,-3.833166 -3.24892,-8.188701 l -2.7874,-2.726645 -2.17171,0.0028 c -1.19445,0.0016 -12.67277,0.223487 -25.50739,0.493245 -12.83462,0.269757 -34.47041,0.679123 -48.07953,0.909703 -13.609123,0.230579 -25.492044,0.469488 -26.40649,0.530911 l -1.662631,0.111677 -4.083708,4.055376 c -4.124826,4.096209 -5.16413,5.449045 -5.16413,6.722018 0,0.26145 0.373914,1.236999 0.830921,2.167886 0.666867,1.358359 0.804898,1.822689 0.699114,2.351805 -0.329592,1.648573 -3.41943,5.103356 -5.460583,6.105539 -1.657384,0.813755 -3.524487,0.830197 -5.122084,0.04511 -1.49893,-0.736606 -3.166988,-2.266921 -4.33622,-3.978152 -0.825838,-1.208653 -0.981086,-1.589999 -1.047313,-2.572539 -0.06819,-1.011726 -0.0035,-1.269161 0.526632,-2.094037 0.795315,-1.237619 2.811228,-2.637371 6.415155,-4.454377 1.576222,-0.79469 2.866222,-1.495986 2.866667,-1.558433 0.002,-0.273564 -5.024941,-4.71393 -5.933693,-5.241363 C 53.130808,67.22993 50.36125,66.751791 42.044444,66.209278 36.216008,65.829084 32.683227,65.440628 29.069006,64.782527 22.63829,63.611582 17.833085,61.933714 14.533158,59.706948 12.275857,58.183736 11.722205,57.426425 10.775441,54.566965 7.8758396,45.809461 1.6577865,19.469521 0.37869389,10.525899 L 0.01010137,7.948641 0.6066069,6.804262 C 0.98541494,6.0775296 2.0114207,4.8384629 3.4179305,3.4091377 6.2609074,0.52004379 6.7919418,0.26137897 9.8573099,0.27254084 13.795704,0.28688162 19.735373,1.3289757 22.743009,2.5332912 c 5.026206,2.0125907 8.045313,5.6232296 13.716344,16.4037848 3.905315,7.423953 7.554526,13.598692 9.74892,16.495906 1.515104,2.000364 2.308942,2.379646 4.687633,2.239668 3.522935,-0.207316 8.007035,-1.52349 31.209296,-9.160563 40.652938,-13.381005 43.390078,-14.042252 69.576668,-16.808554 16.44763,-1.7374964 20.25245,-2.0063919 28.36491,-2.0046136 7.51424,0.00165 9.98148,0.2391259 14.48421,1.3941456 4.31318,1.106397 7.68567,2.74553 11.39345,5.537571 0.92542,0.696862 3.991,3.551404 6.8124,6.343425 l 5.12983,5.076406 9.55555,0.108006 c 5.25556,0.0594 10.59661,0.202471 11.86901,0.31793 11.32935,1.028043 20.09394,2.730887 25.44795,4.944196 0.88515,0.365911 2.87673,1.393485 4.42573,2.283494 l 2.81638,1.6182 0.14345,-8.589099 c 0.25108,-15.033839 0.63994,-19.4927057 2.09315,-24.0007848 0.64141,-1.9897363 1.48632,-3.3088624 2.39774,-3.74349083 2.09134,-0.99728522 2.51663,1.37737223 2.90829,16.23821663 0.44362,16.832952 0.63976,19.490255 1.57242,21.303437 0.23601,0.458853 1.08223,1.258247 2.30713,2.179499 4.18759,3.149495 4.01688,5.152054 -0.7196,8.441195 -0.50868,0.353244 -1.15727,0.993424 -1.4413,1.422625 -1.07595,1.625893 -1.24202,3.709555 -1.71913,21.572542 -0.28677,10.735715 -0.58488,14.281743 -1.32141,15.717142 -0.36295,0.707337 -0.77454,0.832299 -1.60225,0.486459 -1.27435,-0.532458 -2.41148,-2.975085 -3.18856,-6.849215 -0.71528,-3.566019 -0.93286,-6.696777 -1.13246,-16.294737 -0.11045,-5.310877 -0.22256,-10.544346 -0.24915,-11.62993 l -0.0483,-1.973792 -2.31345,1.956805 c -1.2724,1.076241 -2.93284,2.358963 -3.68988,2.850493 -6.82852,4.433651 -20.99339,7.473599 -39.56159,8.490389 -2.15754,0.118144 -8.7207,0.304854 -14.58479,0.414908 -10.33752,0.194008 -11.96959,0.274313 -11.96959,0.588958 0,0.182034 1.7793,2.162104 4.66061,5.186478 2.39616,2.515149 4.02951,4.833999 4.53541,6.438887 0.46416,1.472509 0.2362,2.072532 -0.89399,2.35295 -1.10728,0.274734 -1.46834,0.666192 -1.60652,1.741791 -0.30291,2.35747 -2.56974,4.866198 -5.91546,6.546652 -2.09091,1.050208 -3.82703,1.286188 -5.70871,0.775953 z m 82.7623,-1.360761 c 0.67577,-1.777392 1.09486,-12.196739 0.96493,-23.989138 -0.13659,-12.396768 -0.42535,-14.909121 -1.88092,-16.364693 -0.55291,-0.552907 -0.77828,-0.653375 -1.22894,-0.547842 -0.89173,0.208821 -1.57969,1.119944 -1.73613,2.2993 -0.51894,3.912025 -0.70235,17.29559 -0.32294,23.565282 0.47878,7.911821 1.49264,13.260576 2.83762,14.970439 0.50525,0.642345 1.1358,0.673104 1.36638,0.06665 z M 66.238618,69.045864 c 1.808853,-1.808852 1.843834,-2.149869 0.245646,-2.394666 -1.197516,-0.183427 -5.310766,-0.06849 -5.881925,0.164351 -0.626118,0.255252 -0.380822,0.732133 1.152706,2.240987 1.32296,1.301672 1.594615,1.48054 2.248557,1.48054 0.656618,0 0.918599,-0.174794 2.235016,-1.491212 z M 192.09713,68.244875 c 0.77529,-0.323935 1.32743,-1.018654 1.32743,-1.670202 0,-0.746522 -1.02469,-1.132597 -3.26355,-1.229609 -3.08466,-0.133663 -3.48301,0.123067 -2.48038,1.598582 0.91838,1.351514 2.89931,1.935153 4.4165,1.301229 z M 276.89232,41.84713 c 0.86056,-1.094039 1.33705,-4.106326 1.64826,-10.419959 0.27124,-5.502363 0.12815,-23.0564281 -0.21084,-25.8678728 -0.62896,-5.2163107 -1.60443,-5.54377903 -3.10027,-1.0407802 -0.40815,1.2286604 -0.87289,3.1196803 -1.03278,4.2022664 -1.26345,8.5549686 -0.75449,29.1987926 0.81357,32.9987476 0.35351,0.856697 1.26018,0.918166 1.88206,0.127598 z m -93.00645,-3.293345 c 1.89021,-0.104946 3.58758,-0.248694 3.77193,-0.319436 0.48346,-0.185522 0.43112,-1.318908 -0.18862,-4.084746 -1.13769,-5.077305 -3.38043,-12.012098 -4.88176,-15.094904 -0.69036,-1.417575 -0.78657,-1.519594 -1.93531,-2.052177 -1.75904,-0.815532 -4.13572,-1.081498 -7.10157,-0.794714 -4.77352,0.461577 -11.53121,2.118822 -14.47271,3.549267 -3.00242,1.460073 -3.40537,3.174157 -2.05381,8.736661 0.82478,3.394499 1.70579,6.008817 2.3868,7.082656 1.13644,1.791993 2.93229,2.63398 6.31697,2.96174 2.37051,0.22955 14.1231,0.239681 18.15808,0.01565 z m 18.89308,-1.901073 c 1.32772,-0.302931 3.53364,-0.913234 4.90206,-1.356229 6.33537,-2.050934 9.07615,-3.77924 9.07848,-5.724788 0.002,-0.98827 -1.40718,-2.881736 -4.52531,-6.084032 -4.77754,-4.90652 -8.15652,-7.635422 -11.29724,-9.123748 -1.48271,-0.702627 -1.98746,-0.844336 -3.03026,-0.850737 -1.15932,-0.0071 -1.45371,0.09575 -4.00799,1.400506 -1.51622,0.774503 -3.09425,1.725158 -3.50673,2.112566 -1.38376,1.299635 -1.27451,2.774984 0.80936,10.930162 1.75277,6.859434 2.37771,8.401689 3.673,9.06448 1.01137,0.517507 4.79519,0.341265 7.90463,-0.36818 z"
     id="path4529"
     inkscape:connector-curvature="0"
     transform="scale(0.75)" />
</svg>
