<?xml version="1.0" standalone="no"?>
<!DOCTYPE svg PUBLIC "-//W3C//DTD SVG 20010904//EN"
 "http://www.w3.org/TR/2001/REC-SVG-20010904/DTD/svg10.dtd">
<svg version="1.0" xmlns="http://www.w3.org/2000/svg"
 width="73.000000pt" height="555.000000pt" viewBox="0 0 73.000000 555.000000"
 preserveAspectRatio="xMidYMid meet">

<g transform="translate(0.000000,555.000000) scale(0.100000,-0.100000)"
fill="#000000" stroke="none">
<path d="M346 5528 c-3 -13 -8 -455 -11 -983 -4 -528 -10 -989 -13 -1025 -7
-61 -9 -65 -33 -68 -22 -3 -30 -12 -43 -50 -10 -26 -21 -55 -27 -64 -5 -10 -9
-56 -9 -104 l0 -85 50 -22 c49 -22 50 -22 50 -69 l0 -48 -61 0 c-53 0 -73 -6
-150 -46 l-89 -46 0 -227 0 -228 39 -31 c22 -18 49 -32 60 -32 48 0 5 -54 -59
-75 -28 -9 -50 -23 -50 -30 0 -10 61 -73 73 -75 1 -1 38 -7 82 -15 44 -8 94
-15 111 -15 20 0 34 -6 38 -16 9 -23 7 -572 -4 -939 -5 -176 -11 -527 -14
-780 l-5 -460 15 600 c8 330 15 824 17 1098 2 410 4 496 15 492 43 -16 93 -17
116 -1 14 9 43 16 65 16 35 0 39 -3 43 -30 4 -27 2 -30 -22 -30 -28 0 -50 -16
-50 -37 0 -7 13 -27 29 -45 l28 -33 12 -465 c27 -1056 33 -1292 40 -1425 6
-118 8 -127 9 -55 1 47 -2 175 -8 285 -5 110 -14 432 -20 715 -6 283 -13 611
-17 728 l-6 212 29 0 c35 0 97 52 92 77 -2 11 -19 21 -46 28 -68 16 -85 65
-30 84 65 23 102 82 59 96 -17 5 -31 42 -31 81 0 7 14 29 31 48 l30 35 -36 32
c-31 28 -36 37 -31 62 3 17 17 45 31 63 31 40 31 39 0 76 -31 36 -32 70 -3
108 17 23 19 33 10 42 -19 19 -15 48 7 48 10 0 26 11 35 25 13 19 14 29 4 49
-8 20 -8 29 2 41 17 20 7 29 -51 44 -26 7 -58 21 -73 30 l-27 18 56 6 c31 3
62 11 70 17 16 13 60 239 48 249 -11 10 -153 64 -225 86 l-58 18 0 46 c0 25
-7 370 -15 766 -8 396 -14 822 -14 947 0 246 -8 308 -41 308 -12 0 -21 -8 -24
-22z m45 -29 c4 -13 7 -93 8 -176 l1 -153 -25 0 -25 0 0 173 c0 96 3 177 7
181 12 11 27 0 34 -25z m13 -681 c3 -29 6 -99 6 -155 l0 -103 -30 0 -30 0 0
155 0 155 24 0 c21 0 24 -6 30 -52z m16 -733 l0 -145 -40 0 -40 0 0 145 0 145
40 0 40 0 0 -145z m98 -640 c76 -25 189 -68 197 -76 3 -4 -16 -119 -30 -176
-5 -22 -6 -21 -123 18 -103 36 -124 39 -177 34 -33 -3 -70 -9 -82 -12 -23 -5
-23 -4 -23 100 l0 105 78 15 c42 8 78 15 80 16 2 0 38 -10 80 -24z m-263 -272
c-9 -13 -20 -21 -25 -18 -12 7 -13 157 -2 171 5 5 15 29 23 54 l14 45 3 -114
c2 -90 -1 -118 -13 -138z m245 12 c23 -12 30 -22 30 -45 0 -19 -5 -30 -14 -30
-8 0 -38 -9 -68 -21 -52 -20 -54 -21 -50 -55 2 -19 1 -51 -4 -72 l-8 -37 -5
35 c-5 29 -11 36 -33 38 -27 3 -28 5 -28 70 0 100 4 107 58 119 69 15 90 15
122 -2z m164 -196 c29 -34 32 -49 14 -67 -20 -20 -55 -14 -72 13 -21 32 -20
61 2 74 25 15 28 14 56 -20z m-303 -6 c4 -4 5 -41 2 -81 -5 -58 -9 -72 -20
-67 -8 3 -48 5 -89 5 l-74 0 0 73 c0 41 3 77 8 81 9 10 161 1 173 -11z m-191
-73 c0 -64 -2 -71 -22 -79 -13 -5 -47 -18 -76 -30 l-52 -21 0 64 0 63 68 36
c37 20 70 37 75 37 4 0 7 -32 7 -70z m407 -76 c20 -40 10 -67 -25 -72 -28 -4
-71 25 -78 54 -8 33 12 54 52 54 29 0 37 -5 51 -36z m-234 -10 l37 -7 0 -128
0 -129 -27 -1 c-16 -1 -58 -1 -94 0 -52 2 -84 -4 -152 -28 l-87 -30 0 133 0
133 78 31 c79 32 158 40 245 26z m137 -144 c0 -5 -7 -10 -15 -10 -8 0 -15 5
-15 10 0 6 7 10 15 10 8 0 15 -4 15 -10z m36 -21 c8 -14 -18 -31 -30 -19 -9 9
0 30 14 30 5 0 12 -5 16 -11z m-46 -20 c0 -12 -37 -12 -44 0 -3 4 -3 11 0 14
8 7 44 -4 44 -14z m102 -34 c11 -15 9 -53 -3 -60 -17 -11 -56 4 -61 23 -11 41
40 70 64 37z m-356 -220 c-4 -14 -16 -24 -33 -28 -16 -3 -37 -9 -47 -13 -15
-6 -17 -4 -10 7 4 8 11 32 14 54 4 31 13 44 40 63 l35 24 3 -43 c2 -23 1 -52
-2 -64z m236 95 l38 0 0 -66 0 -67 -61 7 c-34 3 -93 6 -130 6 l-69 0 0 66 0
67 92 -7 c50 -3 108 -6 130 -6z m108 -33 c43 -21 45 -25 51 -72 3 -28 5 -52 3
-53 -1 -2 -28 2 -58 9 l-56 12 0 64 c0 34 3 63 8 62 4 0 27 -10 52 -22z"/>
</g>
</svg>
